<svg width="183" height="176" viewBox="0 0 183 176" fill="none" xmlns="http://www.w3.org/2000/svg">
<path d="M31.4531 156.75C28.2946 156.75 25.7344 154.287 25.7344 151.25V22.6875C25.7344 10.1774 36.3166 0 49.3242 0H151.547C154.705 0 157.266 2.46262 157.266 5.5V132C157.266 135.037 154.705 137.5 151.547 137.5C148.388 137.5 145.828 135.037 145.828 132V11H49.3242C42.6233 11 37.1719 16.2429 37.1719 22.6875V151.25C37.1719 154.287 34.6117 156.75 31.4531 156.75Z" fill="white"/>
<path d="M151.547 176H51.4688C37.2787 176 25.7344 164.897 25.7344 151.25C25.7344 137.603 37.2787 126.5 51.4688 126.5H151.547C154.705 126.5 157.266 128.963 157.266 132C157.266 135.037 154.705 137.5 151.547 137.5H51.4688C43.5855 137.5 37.1719 143.668 37.1719 151.25C37.1719 158.832 43.5855 165 51.4688 165H151.547C154.705 165 157.266 167.463 157.266 170.5C157.266 173.537 154.705 176 151.547 176Z" fill="white"/>
<path d="M151.547 156.75H51.4688C48.3102 156.75 45.75 154.287 45.75 151.25C45.75 148.213 48.3102 145.75 51.4688 145.75H151.547C154.705 145.75 157.266 148.213 157.266 151.25C157.266 154.287 154.705 156.75 151.547 156.75Z" fill="white"/>
<path d="M57.1875 137.5C54.029 137.5 51.4688 135.037 51.4688 132V5.5C51.4688 2.46262 54.029 0 57.1875 0C60.346 0 62.9062 2.46262 62.9062 5.5V132C62.9062 135.037 60.346 137.5 57.1875 137.5Z" fill="white"/>
</svg>
