<svg width="153" height="150" viewBox="0 0 153 150" fill="none" xmlns="http://www.w3.org/2000/svg">
<path d="M113.153 16.1415H39.8469C37.3714 16.1415 35.3645 18.1091 35.3645 20.536V38.0022C35.3645 40.4292 37.3714 42.3967 39.8469 42.3967H113.153C115.629 42.3967 117.636 40.4292 117.636 38.0022V20.536C117.636 18.1091 115.629 16.1415 113.153 16.1415ZM108.671 33.6077H44.3294V24.9305H108.671V33.6077Z" fill="white"/>
<path d="M84.4127 58.6415H39.8469C37.3714 58.6415 35.3645 60.6091 35.3645 63.036V75.9888C35.3645 78.4157 37.3714 80.3833 39.8469 80.3833H84.4127C86.8882 80.3833 88.8951 78.4157 88.8951 75.9888V63.036C88.8951 60.6091 86.8882 58.6415 84.4127 58.6415ZM79.9303 71.5942H44.3294V67.4305H79.9303V71.5942Z" fill="white"/>
<path d="M113.888 58.6415H98.7968C96.3213 58.6415 94.3143 60.6091 94.3143 63.036V75.9888C94.3143 78.4157 96.3213 80.3833 98.7968 80.3833H113.888C116.363 80.3833 118.37 78.4157 118.37 75.9888V63.036C118.37 60.6091 116.363 58.6415 113.888 58.6415ZM109.405 71.5942H103.279V67.4305H109.405V71.5942Z" fill="white"/>
<path d="M113.888 84.6486H98.7968C96.3213 84.6486 94.3143 86.6161 94.3143 89.0431V101.996C94.3143 104.423 96.3213 106.39 98.7968 106.39H113.888C116.363 106.39 118.37 104.423 118.37 101.996V89.0431C118.37 86.6161 116.363 84.6486 113.888 84.6486ZM109.405 97.6013H103.279V93.4376H109.405V97.6013Z" fill="white"/>
<path d="M84.4127 84.6486H69.3219C66.8464 84.6486 64.8394 86.6161 64.8394 89.0431V101.996C64.8394 104.423 66.8464 106.39 69.3219 106.39H84.4127C86.8882 106.39 88.8951 104.423 88.8951 101.996V89.0431C88.8951 86.6161 86.8882 84.6486 84.4127 84.6486ZM79.9303 97.6013H73.8043V93.4376H79.9303V97.6013Z" fill="white"/>
<path d="M54.9378 84.6486H39.8469C37.3714 84.6486 35.3645 86.6161 35.3645 89.0431V101.996C35.3645 104.423 37.3714 106.39 39.8469 106.39H54.9378C57.4132 106.39 59.4202 104.423 59.4202 101.996V89.0431C59.4202 86.6161 57.4132 84.6486 54.9378 84.6486ZM50.4553 97.6013H44.3294V93.4376H50.4553V97.6013Z" fill="white"/>
<path d="M113.888 110.656H98.7968C96.3213 110.656 94.3143 112.623 94.3143 115.05V128.003C94.3143 130.43 96.3213 132.398 98.7968 132.398H113.888C116.363 132.398 118.37 130.43 118.37 128.003V115.05C118.37 112.623 116.363 110.656 113.888 110.656ZM109.405 123.608H103.279V119.445H109.405V123.608Z" fill="white"/>
<path d="M84.4127 110.656H69.3219C66.8464 110.656 64.8394 112.623 64.8394 115.05V128.003C64.8394 130.43 66.8464 132.398 69.3219 132.398H84.4127C86.8882 132.398 88.8951 130.43 88.8951 128.003V115.05C88.8951 112.623 86.8882 110.656 84.4127 110.656ZM79.9303 123.608H73.8043V119.445H79.9303V123.608Z" fill="white"/>
<path d="M54.9378 110.656H39.8469C37.3714 110.656 35.3645 112.623 35.3645 115.05V128.003C35.3645 130.43 37.3714 132.398 39.8469 132.398H54.9378C57.4132 132.398 59.4202 130.43 59.4202 128.003V115.05C59.4202 112.623 57.4132 110.656 54.9378 110.656ZM50.4553 123.608H44.3294V119.445H50.4553V123.608Z" fill="white"/>
<path d="M118.608 0H34.3918C26.276 0 19.6731 6.47344 19.6731 14.4302V135.57C19.6731 143.527 26.276 150 34.3918 150H118.608C126.724 150 133.327 143.527 133.327 135.57V14.4302C133.327 6.47344 126.724 0 118.608 0ZM124.362 135.57C124.362 138.68 121.781 141.211 118.608 141.211H34.3918C31.2192 141.211 28.6379 138.68 28.6379 135.57V14.4302C28.6379 11.3197 31.2192 8.78906 34.3918 8.78906H118.608C121.781 8.78906 124.362 11.3197 124.362 14.4302V135.57Z" fill="white"/>
</svg>
