<svg width="162" height="164" viewBox="0 0 162 164" fill="none" xmlns="http://www.w3.org/2000/svg">
<path d="M145.783 140.669C173.981 107.744 164.17 56.5579 125.82 36.5903C114.744 14.8782 92.3586 0 66.6035 0C29.8802 0 0.00385933 30.2471 0.00385933 67.4258C0.00385933 83.7934 5.72701 99.2735 16.2155 111.521L1.41598 126.307C-1.58355 129.304 0.494288 134.51 4.72717 134.531L40.4671 134.704C52.7832 152.846 73.129 164 95.3951 164C95.4407 164 157.235 163.68 157.272 163.68C161.49 163.659 163.592 158.462 160.583 155.455L145.783 140.669ZM26.1864 108.271C15.4233 97.3548 9.4954 82.8488 9.4954 67.4258C9.4954 35.5457 35.1141 9.60938 66.6035 9.60938C98.0928 9.60938 123.712 35.5457 123.712 67.4258C123.712 97.9749 99.8315 125.489 64.7516 125.211L16.2598 124.977L26.1611 115.085C28.0336 113.214 28.0447 110.156 26.1864 108.271ZM95.3951 154.391C78.7414 154.391 63.2619 147.187 52.5016 134.762C70.5696 134.882 65.7732 134.852 66.6035 134.852C109.445 134.852 141.435 94.169 131.368 51.693C157.619 73.4018 159.769 113.122 135.812 137.42C133.954 139.305 133.965 142.363 135.837 144.234L145.739 154.126C145.701 154.126 95.4318 154.391 95.3951 154.391Z" fill="white"/>
<path d="M38.2866 53.1719H95.2364C97.8575 53.1719 99.9822 51.0207 99.9822 48.3672C99.9822 45.7137 97.8575 43.5625 95.2364 43.5625H38.2866C35.6655 43.5625 33.5408 45.7137 33.5408 48.3672C33.5408 51.0207 35.6658 53.1719 38.2866 53.1719Z" fill="white"/>
<path d="M38.2866 72.3906H95.2364C97.8575 72.3906 99.9822 70.2394 99.9822 67.5859C99.9822 64.9325 97.8575 62.7812 95.2364 62.7812H38.2866C35.6655 62.7812 33.5408 64.9325 33.5408 67.5859C33.5408 70.2394 35.6658 72.3906 38.2866 72.3906Z" fill="white"/>
<path d="M38.2866 91.6094H95.2364C97.8575 91.6094 99.9822 89.4582 99.9822 86.8047C99.9822 84.1512 97.8575 82 95.2364 82H38.2866C35.6655 82 33.5408 84.1512 33.5408 86.8047C33.5408 89.4582 35.6658 91.6094 38.2866 91.6094Z" fill="white"/>
</svg>
