<svg width="151" height="150" viewBox="0 0 151 150" fill="none" xmlns="http://www.w3.org/2000/svg">
<path d="M100.667 129.167C79.6525 129.167 61.4067 117.334 52.3046 100H100.667V83.3332H46.8521C46.4325 80.625 46.1391 77.8332 46.1391 75C46.1391 72.1668 46.4329 69.375 46.8521 66.6668H100.667V50H52.3046C61.4067 32.6668 79.6104 20.8332 100.667 20.8332C114.215 20.8332 126.588 25.75 136.11 33.875L151 19.1668C137.662 7.2918 120.003 0 100.667 0C67.8242 0 39.9312 20.875 29.5708 50H0V66.6668H25.67C25.3346 69.4168 25.1667 72.1668 25.1667 75C25.1667 77.8332 25.3346 80.5832 25.67 83.3332H0V100H29.5708C39.9312 129.125 67.8242 150 100.667 150C120.003 150 137.662 142.708 151 130.833L136.11 116.083C126.588 124.208 114.215 129.167 100.667 129.167Z" fill="white"/>
</svg>
