<svg width="157" height="168" viewBox="0 0 157 168" fill="none" xmlns="http://www.w3.org/2000/svg">
<path d="M90.7656 76.125C89.073 76.125 87.6992 77.595 87.6992 79.4062C87.6992 81.2175 89.073 82.6875 90.7656 82.6875C92.4583 82.6875 93.832 81.2175 93.832 79.4062C93.832 77.595 92.4583 76.125 90.7656 76.125Z" fill="white"/>
<path d="M78.5 56.4375C76.8073 56.4375 75.4336 57.9075 75.4336 59.7188C75.4336 61.53 76.8073 63 78.5 63C80.1927 63 81.5664 61.53 81.5664 59.7188C81.5664 57.9075 80.1927 56.4375 78.5 56.4375Z" fill="white"/>
<path d="M41.7031 141.75C40.0105 141.75 38.6367 143.22 38.6367 145.031C38.6367 146.843 40.0105 148.312 41.7031 148.312C43.3958 148.312 44.7695 146.843 44.7695 145.031C44.7695 143.22 43.3958 141.75 41.7031 141.75Z" fill="white"/>
<path d="M139.342 133.769L99.9649 58.8594V19.1251C103.534 17.7709 106.098 14.1218 106.098 9.84375C106.098 4.41591 101.971 0 96.8984 0H60.1016C55.0291 0 50.9024 4.41591 50.9024 9.84375C50.9024 14.1218 53.4656 17.7709 57.0352 19.1251V58.8594L17.6576 133.769C13.8773 140.961 13.9445 149.506 17.8367 156.628C21.7286 163.748 28.655 168 36.3645 168H120.636C128.345 168 135.271 163.748 139.163 156.628C143.056 149.506 143.123 140.961 139.342 133.769ZM62.7743 61.3272C63.0324 60.8363 63.168 60.2821 63.168 59.7188V19.6875H66.2344C67.9277 19.6875 69.3008 18.2182 69.3008 16.4062C69.3008 14.5943 67.9277 13.125 66.2344 13.125H60.1016C58.4108 13.125 57.0352 11.653 57.0352 9.84375C57.0352 8.03447 58.4108 6.5625 60.1016 6.5625H96.8984C98.5893 6.5625 99.9649 8.03447 99.9649 9.84375C99.9649 11.653 98.5893 13.125 96.8984 13.125H90.7656C89.0724 13.125 87.6992 14.5943 87.6992 16.4062C87.6992 18.2182 89.0724 19.6875 90.7656 19.6875H93.832V59.7188C93.832 60.2825 93.9676 60.836 94.2258 61.3272L112.299 95.7104C101.262 94.754 90.2627 97.1427 80.1571 102.742C67.166 109.936 52.7039 111.203 39.0672 106.426L62.7743 61.3272ZM133.869 153.314C131.089 158.401 126.142 161.438 120.636 161.438H36.3645C30.8579 161.438 25.9105 158.401 23.1308 153.314C20.3505 148.228 20.3024 142.123 23.003 136.986L36.007 112.248C42.3164 114.606 48.8368 115.796 55.4593 115.796C56.4397 115.796 57.4225 115.77 58.4071 115.718C66.9639 115.264 75.23 112.86 82.9764 108.57C93.3384 102.829 104.735 100.847 116.027 102.801L133.997 136.986C136.698 142.123 136.65 148.228 133.869 153.314Z" fill="white"/>
<path d="M66.2344 76.125C61.1619 76.125 57.0352 80.5409 57.0352 85.9688C57.0352 91.3966 61.1619 95.8125 66.2344 95.8125C71.3068 95.8125 75.4336 91.3966 75.4336 85.9688C75.4336 80.5409 71.3068 76.125 66.2344 76.125ZM66.2344 89.25C64.5436 89.25 63.168 87.778 63.168 85.9688C63.168 84.1595 64.5436 82.6875 66.2344 82.6875C67.9252 82.6875 69.3008 84.1595 69.3008 85.9688C69.3008 87.778 67.9252 89.25 66.2344 89.25Z" fill="white"/>
<path d="M115.297 141.75H53.9688C52.2755 141.75 50.9023 143.219 50.9023 145.031C50.9023 146.843 52.2755 148.312 53.9688 148.312H115.297C116.99 148.312 118.363 146.843 118.363 145.031C118.363 143.219 116.99 141.75 115.297 141.75Z" fill="white"/>
</svg>
