<svg width="167" height="165" viewBox="0 0 167 165" fill="none" xmlns="http://www.w3.org/2000/svg">
<path d="M83.5 0C37.4589 0 0 37.0103 0 82.5C0 127.99 37.4589 165 83.5 165C129.541 165 167 127.99 167 82.5C167 37.0103 129.541 0 83.5 0ZM83.5 151.25C64.5442 151.25 47.3536 143.703 34.7918 131.515V120.312C34.7918 117.043 36.2732 114.938 37.9856 112.501C39.7489 109.993 41.75 107.15 41.75 103.125C41.75 96.5688 35.7599 95.9043 32.5389 95.5485C30.2352 95.2933 28.0609 95.0516 26.8139 93.8196C25.8693 92.8863 24.9247 91.1912 23.926 89.3984C21.9426 85.8329 19.2539 81.1178 14.1353 78.23C16.3856 42.3122 46.5894 13.7501 83.5 13.7501C85.4097 13.7501 87.2872 13.8835 89.1588 14.0334C88.7778 14.2806 88.311 14.4485 87.9986 14.7572C87.3224 15.4252 86.9522 16.3418 86.9793 17.2883C87.0099 18.2315 87.431 19.1245 88.1447 19.7555C89.3949 20.8532 89.6363 21.4071 89.6839 21.4071C89.6056 21.5715 88.967 22.6491 85.4061 24.4351C79.5282 27.379 72.7399 33.4048 71.7307 39.6757C71.2686 42.5223 72.1045 45.1642 74.0818 47.1181C74.7341 47.7627 75.6174 48.1252 76.5418 48.1252C81.3734 48.1252 85.107 46.3595 88.7188 44.6541C92.4257 42.9048 95.9285 41.25 100.896 41.25C114.551 41.25 125.25 44.2712 125.25 48.1249C125.25 49.538 124.805 49.9711 124.635 50.1323C122.926 51.7939 117.106 51.6866 111.989 51.6092C110.634 51.5857 109.247 51.5622 107.854 51.5622C103.132 51.5622 101.667 50.8806 99.9717 50.0885C97.9977 49.1687 95.7621 48.1246 90.4582 48.1246C84.7231 48.1246 74.0648 49.1484 67.1232 56.0065C61.4459 61.6127 62.047 68.3197 62.4414 72.7544C62.533 73.775 62.625 74.7418 62.625 75.6245C62.625 82.3953 69.6276 85.937 76.5418 85.937C87.1763 85.937 96.3704 87.8973 97.4168 89.3746C97.4168 93.2218 98.5753 95.8502 99.5062 97.9581C100.281 99.7206 100.896 101.11 100.896 103.124C100.896 104.682 100.637 105.014 99.941 105.901C98.6125 107.606 97.4164 109.462 97.4164 113.437C97.4164 120.671 104.467 128.607 105.268 129.49C105.938 130.222 106.882 130.625 107.854 130.625C108.143 130.625 108.432 130.591 108.717 130.517C110.766 129.997 128.729 125.113 128.729 113.437C128.729 109.778 129.881 108.791 131.627 107.294C133.339 105.823 135.687 103.813 135.687 99.6871C135.687 96.9311 140.637 89.8177 145.224 84.8058C145.874 84.0975 146.196 83.151 146.111 82.1974C146.027 81.2441 145.544 80.3679 144.78 79.7836C142.075 77.7124 134.607 70.9684 132.106 64.4257C133.523 65.1576 135.297 66.3493 136.707 67.7425C137.865 68.8939 139.418 69.4444 141.185 69.3741C144.003 69.2152 147.35 67.0155 150.522 64.2717C152.145 70.0873 153.084 76.1813 153.084 82.5C153.083 120.41 121.869 151.25 83.5 151.25Z" fill="white"/>
</svg>
