<svg width="220" height="150" viewBox="0 0 220 150" fill="none" xmlns="http://www.w3.org/2000/svg">
<path d="M180.369 113.278H129.503C126.461 113.278 124 115.723 124 118.746L123.955 119.769L95.9947 119.724V118.746C95.9947 115.723 93.5341 113.278 90.492 113.278H39.7156C36.6735 113.278 34.213 115.723 34.213 118.746C34.213 121.769 36.6735 124.215 39.7156 124.215H86.0183C87.7631 127.993 91.6105 130.661 96.0394 130.661H123.955C128.429 130.661 132.276 127.993 133.976 124.215H180.324C183.366 124.215 185.826 121.769 185.826 118.746C185.871 115.723 183.411 113.278 180.369 113.278Z" fill="white"/>
<path d="M213.921 113.278H203.542V14.2709C203.542 14.0931 203.542 13.9152 203.498 13.7374C202.737 5.91286 196.34 0 188.69 0H30.8577C22.9393 0 16.4971 6.4019 16.4971 14.2709V113.278H6.16291C3.12079 113.278 0.660263 115.723 0.660263 118.746V129.06C0.660263 140.619 10.0998 150 21.7314 150H198.263C209.895 150 219.334 140.619 219.334 129.06V118.746C219.424 115.723 216.963 113.278 213.921 113.278ZM208.463 129.06C208.463 134.618 203.9 139.108 198.353 139.108H21.7761C16.184 139.108 11.6208 134.573 11.6208 129.06V124.215H21.955C24.9972 124.215 27.4577 121.769 27.4577 118.746V14.2709C27.4577 12.4037 28.9787 10.8921 30.8577 10.8921H188.69C190.613 10.8921 192.269 12.4926 192.582 14.5821V118.702C192.582 121.725 195.087 124.17 198.084 124.17H208.463V129.06Z" fill="white"/>
<path d="M133.574 91.1381C134.647 92.4274 136.213 93.0498 137.779 93.0498C139.032 93.0498 140.284 92.6052 141.313 91.7605L168.692 68.687C169.9 67.6645 170.616 66.1529 170.616 64.508C170.616 62.9075 169.9 61.396 168.692 60.3734L141.313 37.3444C138.987 35.3883 135.542 35.6995 133.574 37.9668C131.605 40.2786 131.918 43.7018 134.2 45.658L156.658 64.5525L134.2 83.4469C131.918 85.4031 131.605 88.8708 133.574 91.1381Z" fill="white"/>
<path d="M78.7262 91.7605C79.7552 92.6497 81.0078 93.0498 82.2604 93.0498C83.8262 93.0498 85.3473 92.3829 86.421 91.1381C88.3894 88.8263 88.121 85.4031 85.7947 83.4469L63.3814 64.508L85.7947 45.6135C88.121 43.6574 88.3894 40.2341 86.421 37.9224C84.4525 35.6106 81.0078 35.3438 78.6815 37.2999L51.3025 60.329C50.0946 61.3515 49.3788 62.8631 49.3788 64.4635C49.3788 66.064 50.0946 67.5756 51.3025 68.5981L78.7262 91.7605Z" fill="white"/>
<path d="M96.3078 98.4291C96.9789 98.6959 97.65 98.8293 98.321 98.8293C100.513 98.8293 102.571 97.54 103.421 95.406L126.639 37.7445C127.758 34.9437 126.416 31.7872 123.597 30.6757C120.779 29.5643 117.603 30.898 116.484 33.6989L93.2657 91.3604C92.1026 94.1612 93.4894 97.3177 96.3078 98.4291Z" fill="white"/>
</svg>
