<svg width="85" height="80" viewBox="0 0 85 80" fill="none" xmlns="http://www.w3.org/2000/svg">
<circle cx="40" cy="40" r="40" fill="#508DE8" fill-opacity="0.3"/>
<path d="M51.9941 54.889C52.5828 54.889 53.0601 54.4299 53.0601 53.8636C53.0601 53.2973 52.5828 52.8382 51.9941 52.8382H49.7151C49.1264 52.8382 48.649 53.2973 48.649 53.8636C48.649 54.4299 49.1264 54.889 49.7151 54.889H51.9941Z" fill="#2D65B8"/>
<path d="M50.8546 63.6566C52.7922 63.6566 54.6288 63.41 56.026 62.9619C58.2834 62.2381 58.7572 61.1905 58.7572 60.4392V57.0145L61.5473 55.7947C62.3447 55.4461 62.8401 54.706 62.8401 53.8634C62.8401 53.0208 62.3447 52.2809 61.5473 51.9323L53.1817 48.2748C51.7029 47.6282 50.0064 47.6282 48.5274 48.2748L40.1619 51.9323C39.3644 52.2809 38.8691 53.0208 38.8691 53.8634C38.8691 54.706 39.3644 55.4461 40.1619 55.7947L42.9519 57.0145V62.6311C42.9519 63.1974 43.4293 63.6565 44.018 63.6565C44.5674 63.6565 45.0192 63.2567 45.0774 62.7432C45.2636 62.8187 45.4649 62.8918 45.6832 62.9618C47.0803 63.41 48.9169 63.6566 50.8546 63.6566ZM41.0011 53.8636C41.0011 53.8182 41.0239 53.8082 41.044 53.7993L49.4096 50.1418C49.8687 49.9411 50.3615 49.8408 50.8544 49.8408C51.3474 49.8408 51.8402 49.9411 52.2993 50.1418L60.6649 53.7993C60.6851 53.8081 60.7078 53.8182 60.7078 53.8636C60.7078 53.9091 60.6849 53.9191 60.6649 53.9278L52.2993 57.5853C51.3812 57.9867 50.3279 57.9869 49.4096 57.5853L41.044 53.9278C41.0239 53.9191 41.0011 53.9091 41.0011 53.8636ZM45.0841 60.3721V57.9468L48.5274 59.4522C49.2669 59.7756 50.0607 59.9372 50.8546 59.9372C51.6483 59.9372 52.4422 59.7756 53.1817 59.4522L56.6251 57.9468V60.3725C56.3318 60.7597 54.3751 61.6058 50.8546 61.6058C47.3326 61.6058 45.376 60.759 45.0841 60.3721Z" fill="#2D65B8"/>
<path d="M42.952 65.9192C42.952 66.4854 43.4293 66.9445 44.018 66.9445H44.0294C44.6181 66.9445 45.0898 66.4854 45.0898 65.9192C45.0898 65.3529 44.6068 64.8938 44.018 64.8938C43.4293 64.8938 42.952 65.3529 42.952 65.9192Z" fill="#2D65B8"/>
<path d="M35.622 67.4273C35.8322 67.6872 36.1465 67.8232 36.4642 67.8232C36.6929 67.8232 36.9234 67.7527 37.1179 67.6071C37.5827 67.2594 37.6663 66.6152 37.3048 66.1683C32.0073 59.6172 32.6146 50.2509 38.7173 44.3812C44.8198 38.5114 54.5576 37.9274 61.3685 43.0226C61.8331 43.3704 62.5029 43.2898 62.8644 42.8428C63.2258 42.3959 63.1421 41.7517 62.6774 41.404C55.0197 35.6751 44.0709 36.3313 37.2097 42.9311C30.3483 49.5307 29.6657 60.0617 35.622 67.4273Z" fill="#2D65B8"/>
<path d="M62.992 67.7297C56.8893 73.5995 47.1515 74.1834 40.3408 69.0883C39.8761 68.7405 39.2065 68.8212 38.8449 69.2681C38.4834 69.7152 38.5671 70.3593 39.0318 70.7069C42.5222 73.3183 46.6957 74.6029 50.8551 74.6029C55.8208 74.6029 60.7657 72.7712 64.4997 69.1798C71.361 62.5802 72.0435 52.0491 66.0874 44.6836C65.7259 44.2364 65.056 44.156 64.5915 44.5038C64.1267 44.8515 64.0431 45.4957 64.4046 45.9426C69.7017 52.4937 69.0945 61.86 62.992 67.7297Z" fill="#2D65B8"/>
<path d="M75.7614 9.61947C75.593 9.2435 75.2081 9 74.7825 9H66.8065C66.5133 9 66.2329 9.11621 66.0315 9.32129L54.2239 21.3464C53.8197 21.7582 53.839 22.4071 54.267 22.796C54.6951 23.1847 55.3697 23.1663 55.7741 22.7546L67.2661 11.0508H72.3093L55.4124 28.2592L36.8172 9.32129C36.6157 9.11621 36.3354 9 36.0421 9H28.0661C27.6404 9 27.2556 9.2435 27.0872 9.61947C26.9186 9.99545 26.9988 10.4317 27.2911 10.7295L45.1535 28.921C43.8705 29.3714 42.952 30.5567 42.952 31.9445C42.952 32.7848 43.289 33.5504 43.8392 34.1241C34.0988 37.0124 27 45.7514 27 56.0555C27 68.7071 37.7011 79 50.8546 79C64.0081 79 74.7092 68.7071 74.7092 56.0555C74.7092 45.7512 67.6104 37.0124 57.87 34.1241C58.4204 33.5504 58.7572 32.7848 58.7572 31.9445C58.7572 30.852 58.1877 29.8854 57.3195 29.3037L75.5575 10.7294C75.8497 10.4319 75.9299 9.99545 75.7614 9.61947ZM35.5825 11.0508L52.9391 28.7273H47.8959L30.5393 11.0508H35.5825ZM72.5769 56.0555C72.5769 67.5763 62.8323 76.9492 50.8545 76.9492C38.8766 76.9492 29.1321 67.5763 29.1321 56.0555C29.1321 44.5346 38.8768 35.1618 50.8545 35.1618C62.8321 35.1618 72.5769 44.5347 72.5769 56.0555ZM46.2968 33.111C45.6281 33.111 45.0841 32.5877 45.0841 31.9445C45.0841 31.3014 45.6282 30.7781 46.2968 30.7781H55.4122C56.081 30.7781 56.625 31.3014 56.625 31.9445C56.625 32.5877 56.0809 33.111 55.4122 33.111H46.2968Z" fill="#2D65B8"/>
</svg>
