<svg width="163" height="164" viewBox="0 0 163 164" fill="none" xmlns="http://www.w3.org/2000/svg">
<g clip-path="url(#clip0)">
<path d="M91.0506 122.359C89.2933 122.359 87.867 123.794 87.867 125.562C87.867 127.331 89.2933 128.766 91.0506 128.766C92.808 128.766 94.2342 127.331 94.2342 125.562C94.2342 123.794 92.808 122.359 91.0506 122.359Z" fill="white"/>
<path d="M135.793 133.177L133.184 125.301C140.929 116.967 145.172 106.191 145.172 94.7346C145.172 74.5601 131.781 56.9225 112.95 51.4086L120.753 37.8088C121.632 36.2768 121.111 34.3181 119.588 33.4333L116.831 31.8318L120.015 26.284L122.772 27.8855C124.291 28.768 126.239 28.2488 127.12 26.7132L133.488 15.6176C134.366 14.0865 133.844 12.1265 132.322 11.2421L110.266 -1.57033C108.744 -2.45439 106.797 -1.92972 105.918 -0.39799L99.5505 10.6976C98.6718 12.2287 99.1933 14.1887 100.716 15.0731L103.473 16.6746L100.289 22.2224L97.5321 20.6209C96.0107 19.7368 94.062 20.2615 93.1833 21.7932L69.3064 63.4046L66.5494 61.803C65.0283 60.9187 63.0796 61.4437 62.2006 62.9754L55.8335 74.0713C54.9541 75.6034 55.4759 77.5621 56.9986 78.4468L90.0825 97.6655C91.5947 98.5444 93.5469 98.0342 94.4313 96.4931L100.798 85.3972C101.678 83.8652 101.156 81.9065 99.6333 81.0218L96.8763 79.4202L99.2273 75.3231C110.327 74.5226 119.703 83.4914 119.703 94.7346C119.703 98.1626 118.825 101.435 117.15 104.339C113.017 102.24 108.453 101.141 103.785 101.141C97.117 101.141 90.6431 103.409 85.4179 107.547H54.3502C48.2833 107.547 42.8275 110.939 40.1113 116.401L37.2652 122.131C36.772 123.124 36.8249 124.303 37.4049 125.247C37.985 126.191 39.0098 126.766 40.1129 126.766H73.9L71.7775 133.172H27.3789V133.172C22.1126 133.172 17.8281 137.483 17.8281 142.781V158.797C17.8281 160.566 19.2534 162 21.0117 162H141.988C143.746 162 145.172 160.566 145.172 158.797V142.781C145.172 137.541 140.98 133.27 135.793 133.177ZM109.84 5.57903L126.382 15.1884L123.198 20.7359C119.516 18.5968 110.953 13.6221 106.657 11.1265L109.84 5.57903ZM108.987 19.8778L114.501 23.0809L111.317 28.6287L105.804 25.4256L108.987 19.8778ZM90.5094 90.5161L62.9395 74.5005L66.1231 68.9527C69.0495 70.6526 87.0667 81.1191 90.9351 83.3664C90.9354 83.3668 90.9357 83.3668 90.9363 83.3671C90.9366 83.3671 90.937 83.3674 90.9373 83.3674L93.693 84.9683L90.5094 90.5161ZM91.3623 76.2171L74.8204 66.6077L97.1058 27.7702C103.585 31.5339 107.386 33.7421 109.49 34.9641C109.009 34.6845 108.632 34.4657 108.588 34.4404C108.668 34.4869 109.912 35.2095 113.648 37.3796C110.357 43.1138 94.1511 71.357 91.3623 76.2171ZM102.871 68.9745L109.657 57.148C126.674 61.3146 138.804 76.7754 138.804 94.7346C138.804 103.429 135.951 111.667 130.687 118.401C128.788 114.309 125.98 110.686 122.498 107.833C124.843 103.888 126.07 99.4192 126.07 94.7346C126.07 81.2479 115.855 70.1449 102.871 68.9745ZM103.785 107.547C113.939 107.547 122.77 114.126 125.905 123.587L129.08 133.172H78.4898L81.6644 123.589C84.8662 113.926 93.8487 107.547 103.785 107.547ZM45.2633 120.36C45.4836 120.1 47.5106 113.921 54.3505 113.921H79.421C78.0482 115.907 76.9161 118.092 76.0553 120.36H45.2633ZM138.804 155.594H24.1953V142.781C24.1953 141.015 25.6234 139.578 27.3789 139.578C29.999 139.578 130.208 139.578 135.621 139.578C137.377 139.578 138.804 141.015 138.804 142.781V155.594Z" fill="white"/>
<path d="M109.877 35.1895C110.07 35.3012 110.246 35.4034 110.405 35.496C110.23 35.3941 110.051 35.2904 109.877 35.1895Z" fill="white"/>
<path d="M109.856 35.177C109.863 35.1812 109.87 35.1851 109.877 35.1892C109.87 35.1851 109.863 35.1812 109.856 35.177Z" fill="white"/>
<path d="M109.49 34.9641C109.5 34.9702 109.51 34.976 109.52 34.9822C109.51 34.976 109.5 34.9699 109.49 34.9641Z" fill="white"/>
<path d="M109.521 34.9822C109.637 35.0501 109.75 35.1154 109.856 35.1772C109.741 35.1103 109.628 35.0446 109.521 34.9822Z" fill="white"/>
<path d="M110.405 35.4958C110.435 35.5133 110.464 35.5303 110.494 35.5474C110.464 35.5303 110.436 35.5136 110.405 35.4958Z" fill="white"/>
<path d="M111.727 36.2637C111.737 36.2701 111.746 36.2756 111.754 36.2798C111.747 36.2756 111.738 36.2701 111.727 36.2637Z" fill="white"/>
<path d="M111.647 36.217C111.68 36.2367 111.707 36.2522 111.727 36.2638C111.706 36.2515 111.68 36.2361 111.647 36.217Z" fill="white"/>
<path d="M111.754 36.2798C111.785 36.2975 111.783 36.2965 111.754 36.2798V36.2798Z" fill="white"/>
<path d="M111.201 35.9583C111.225 35.9721 111.248 35.9856 111.27 35.9985C111.248 35.9853 111.225 35.9718 111.201 35.9583Z" fill="white"/>
<path d="M111.27 35.998C111.427 36.0893 111.558 36.1652 111.647 36.2171C111.565 36.1694 111.442 36.098 111.27 35.998Z" fill="white"/>
<path d="M111.098 35.8984C111.133 35.9191 111.168 35.939 111.201 35.9587C111.168 35.9394 111.134 35.9194 111.098 35.8984Z" fill="white"/>
<path d="M110.493 35.5471C110.732 35.6855 110.932 35.8018 111.098 35.8982C110.915 35.7922 110.709 35.672 110.493 35.5471Z" fill="white"/>
<path d="M116.519 122.359H103.785C102.027 122.359 100.601 123.794 100.601 125.562C100.601 127.331 102.027 128.766 103.785 128.766H116.519C118.278 128.766 119.703 127.331 119.703 125.562C119.703 123.794 118.278 122.359 116.519 122.359Z" fill="white"/>
</g>
<defs>
<clipPath id="clip0">
<rect width="163" height="164" fill="white"/>
</clipPath>
</defs>
</svg>
