<svg width="29" height="29" viewBox="0 0 29 29" fill="none" xmlns="http://www.w3.org/2000/svg">
<g clip-path="url(#clip0)">
<path d="M24.6531 0.572815H4.99467C4.73618 0.572815 4.52661 0.779763 4.52661 1.03501V27.8424C4.52661 28.0977 4.73618 28.3046 4.99467 28.3046H24.6531C24.9116 28.3046 25.1211 28.0977 25.1211 27.8424V1.03501C25.1211 0.779763 24.9116 0.572815 24.6531 0.572815ZM24.185 27.3802H5.46273V1.49721H24.185V27.3802Z" fill="black"/>
<path d="M19.5044 9.81671H11.0794V10.7411H19.5044V9.81671Z" fill="black"/>
<path d="M15.2919 11.6655H11.0794V12.5899H15.2919V11.6655Z" fill="black"/>
<path d="M23.2489 25.0692H15.76V25.9936H23.2489V25.0692Z" fill="black"/>
<path d="M19.5044 3.34601H10.1433V4.2704H19.5044V3.34601Z" fill="black"/>
<path d="M15.76 14.6235H11.0794V15.5479H15.76V14.6235Z" fill="black"/>
<path d="M9.67522 13.5143H7.80299C7.5445 13.5143 7.33493 13.7213 7.33493 13.9765V15.8253C7.33493 16.0806 7.5445 16.2875 7.80299 16.2875H9.67522C9.93371 16.2875 10.1433 16.0806 10.1433 15.8253V13.9765C10.1433 13.7213 9.93371 13.5143 9.67522 13.5143ZM9.20716 15.3631H8.27105V14.4387H9.20716V15.3631Z" fill="black"/>
<path d="M15.5728 18.3212H10.8922V19.2456H15.5728V18.3212Z" fill="black"/>
<path d="M9.67522 17.2119H7.80299C7.5445 17.2119 7.33493 17.4189 7.33493 17.6741V19.5229C7.33493 19.7781 7.5445 19.9851 7.80299 19.9851H9.67522C9.93371 19.9851 10.1433 19.7781 10.1433 19.5229V17.6741C10.1433 17.4189 9.93371 17.2119 9.67522 17.2119ZM9.20716 19.0607H8.27105V18.1363H9.20716V19.0607Z" fill="black"/>
<path d="M9.67522 20.9095H7.80299C7.5445 20.9095 7.33493 21.1164 7.33493 21.3717V23.2205C7.33493 23.4757 7.5445 23.6827 7.80299 23.6827H9.67522C9.93371 23.6827 10.1433 23.4757 10.1433 23.2205V21.3717C10.1433 21.1164 9.93371 20.9095 9.67522 20.9095ZM9.20716 22.7583H8.27105V21.8339H9.20716V22.7583Z" fill="black"/>
<path d="M19.3172 21.649H10.8922V22.5734H19.3172V21.649Z" fill="black"/>
<path d="M18.8492 11.6655H16.5089V12.5899H18.8492V11.6655Z" fill="black"/>
<path d="M10.2804 9.02777L8.73911 10.5498L8.13391 9.95216L7.47208 10.6057L8.40819 11.5301C8.59097 11.7105 8.88725 11.7105 9.07003 11.5301L10.9423 9.68132L10.2804 9.02777Z" fill="black"/>
</g>
<defs>
<clipPath id="clip0">
<rect width="28.0835" height="27.7318" fill="white" transform="translate(0.782135 0.572815)"/>
</clipPath>
</defs>
</svg>
