<svg width="34" height="34" viewBox="0 0 34 34" fill="none" xmlns="http://www.w3.org/2000/svg">
<g clip-path="url(#clip0)">
<path d="M33.2206 12.0975L17.4225 5.3374C17.1553 5.22306 16.8521 5.22306 16.5849 5.3374L0.786801 12.0975C-0.0573446 12.4587 -0.057542 13.6448 0.786801 14.006L6.47162 16.4386V22.9319C6.47162 26.4311 11.0978 29.172 17.0037 29.172C22.9096 29.172 27.5358 26.4311 27.5358 22.9319V16.4386L28.589 15.9879V27.092C28.589 27.6664 29.0606 28.132 29.6422 28.132C30.2238 28.132 30.6954 27.6664 30.6954 27.092V15.0866L33.2206 14.0061C34.0647 13.6449 34.0649 12.4588 33.2206 12.0975ZM17.0037 7.42511L30.1529 13.0518L29.1101 13.498L17.1343 12.0198C16.5571 11.949 16.0307 12.3529 15.9586 12.9228C15.8864 13.4927 16.2959 14.0125 16.873 14.0838L25.308 15.125L17.0037 18.6784C9.57483 15.4996 11.1571 16.1766 3.85447 13.0517L17.0037 7.42511ZM25.4294 22.932C25.4294 23.9119 24.6149 24.9208 23.1948 25.6998C19.8126 27.5553 14.2047 27.5607 10.8126 25.6998C9.39249 24.9208 8.57804 23.9119 8.57804 22.932V17.34L16.5849 20.7662C16.8516 20.8804 17.1548 20.8807 17.4225 20.7662L25.4294 17.34V22.932Z" fill="white"/>
</g>
<defs>
<clipPath id="clip0">
<rect width="33.7001" height="33.2781" fill="white" transform="translate(0.153625 0.572815)"/>
</clipPath>
</defs>
</svg>
