<svg width="29" height="29" viewBox="0 0 29 29" fill="none" xmlns="http://www.w3.org/2000/svg">
<path d="M26.9282 18.7293C25.4361 17.256 23.237 16.7271 21.2375 17.3349L19.2326 15.3551L27.9927 6.70481C28.3889 6.31358 28.6071 5.7934 28.6071 5.24012C28.6071 4.68684 28.3889 4.1666 27.9927 3.77543L25.3639 1.17953C24.9677 0.788254 24.4409 0.572845 23.8806 0.572845C23.3202 0.572845 22.7935 0.788254 22.3973 1.17953L13.6372 9.82988L11.6324 7.8501C12.2479 5.87562 11.7123 3.70404 10.2203 2.23068C9.3946 1.41536 8.3526 0.877624 7.20694 0.675648C6.08798 0.47833 4.94868 0.612439 3.91233 1.06335C3.74669 1.13544 3.62771 1.28358 3.59437 1.45929C3.56107 1.63494 3.61762 1.81557 3.74564 1.94199L6.36251 4.52603L4.51246 6.35285L1.89559 3.76887C1.76757 3.64246 1.58453 3.58678 1.40676 3.61949C1.22882 3.65237 1.07881 3.76985 1.00585 3.93348C0.549223 4.9569 0.413468 6.08187 0.613179 7.18681C0.817717 8.31812 1.36227 9.34707 2.188 10.1624C3.67999 11.6357 5.87922 12.1647 7.87869 11.5569L9.88354 13.5366C9.88354 13.5366 4.85154 18.5056 3.17421 20.162C3.07427 20.2606 3.04142 20.3745 3.04109 20.3756L0.652287 27.493C0.587015 27.6874 0.63841 27.9015 0.785081 28.0463C0.889626 28.1495 1.02977 28.205 1.17298 28.205C1.23069 28.205 1.28888 28.196 1.34543 28.1775L8.54611 25.8209C8.65933 25.789 8.76947 25.6871 8.76947 25.6871L15.4788 19.0618L17.4837 21.0416C16.8682 23.0161 17.4038 25.1877 18.8958 26.6611C19.7215 27.4764 20.7635 28.0141 21.9092 28.2161C22.2445 28.2753 22.5816 28.3046 22.9172 28.3046C23.7016 28.3046 24.4779 28.1442 25.2037 27.8284C25.3694 27.7563 25.4883 27.6082 25.5217 27.4325C25.555 27.2568 25.4984 27.0762 25.3704 26.9498L22.7535 24.3658L24.6036 22.5389L27.2204 25.1229C27.3484 25.2493 27.5313 25.3054 27.7092 25.2723C27.8872 25.2394 28.0372 25.1219 28.1101 24.9583C28.5668 23.9349 28.7026 22.8099 28.5028 21.705C28.2984 20.5736 27.7538 19.5447 26.9282 18.7293ZM23.173 1.94551C23.362 1.75886 23.6133 1.65606 23.8806 1.65606C24.1479 1.65606 24.3992 1.75881 24.5882 1.94551L27.217 4.54141C27.406 4.728 27.5101 4.97612 27.5101 5.24012C27.5101 5.50406 27.406 5.75223 27.2169 5.93883L25.4372 7.69627L21.3933 3.70296L23.173 1.94551ZM8.4125 10.5521C8.30773 10.4486 8.16748 10.3935 8.02454 10.3935C7.95938 10.3935 7.89356 10.4049 7.83042 10.4286C6.14662 11.0581 4.23628 10.6531 2.96358 9.39636C1.81545 8.26261 1.37357 6.66326 1.74261 5.14977L4.1245 7.50188C4.33869 7.71333 4.686 7.71333 4.90019 7.50188L7.52595 4.90902C7.74014 4.69751 7.74014 4.35454 7.52595 4.14304L5.14406 1.79098C6.67664 1.42646 8.29633 1.86291 9.44451 2.99666C10.7172 4.25342 11.1275 6.13983 10.4898 7.80249C10.4134 8.00175 10.4623 8.2267 10.6149 8.37732L12.8615 10.5958L10.6591 12.7706L8.4125 10.5521ZM2.03716 26.8099L2.83057 24.4458L4.43117 26.0264L2.03716 26.8099ZM5.59647 25.6451L3.21677 23.2952L3.80291 21.5488L7.36502 25.0662L5.59647 25.6451ZM8.38167 24.5382L6.74756 22.9245L12.1166 17.6228C12.3308 17.4113 12.3308 17.0683 12.1166 16.8568C11.9024 16.6453 11.5551 16.6453 11.3409 16.8568L5.97187 22.1585L4.3377 20.5449L20.6176 4.46894L20.6619 4.51265L22.2516 6.08258L14.8474 13.3942C14.6332 13.6057 14.6332 13.9486 14.8474 14.1601C14.9544 14.2659 15.0948 14.3188 15.2352 14.3188C15.3756 14.3188 15.516 14.2659 15.6231 14.1601L23.0273 6.84856L24.6615 8.46225L8.38167 24.5382ZM27.3734 23.7419L24.9915 21.3898C24.8887 21.2883 24.7492 21.2312 24.6037 21.2312C24.4582 21.2312 24.3187 21.2883 24.2158 21.3898L21.5901 23.9827C21.376 24.1942 21.376 24.5372 21.5901 24.7487L23.972 27.1008C22.4392 27.4652 20.8197 27.0289 19.6716 25.8951C18.3989 24.6384 17.9886 22.7519 18.6263 21.0892C18.7027 20.89 18.6538 20.665 18.5012 20.5144L16.2545 18.2959L18.4569 16.1211L20.7036 18.3397C20.8561 18.4903 21.0839 18.5387 21.2857 18.4632C22.9694 17.8335 24.8798 18.2386 26.1525 19.4954C27.3006 20.6291 27.7425 22.2285 27.3734 23.7419Z" fill="black"/>
<path d="M13.4889 16.0431C13.2595 16.0431 13.0502 15.8964 12.973 15.6837C12.8969 15.474 12.962 15.233 13.134 15.0886C13.3137 14.9378 13.5779 14.92 13.7783 15.0415C13.9706 15.1582 14.07 15.3894 14.0264 15.6071C13.9763 15.8571 13.7471 16.0431 13.4889 16.0431Z" fill="black"/>
</svg>
