<svg width="85" height="80" viewBox="0 0 85 80" fill="none" xmlns="http://www.w3.org/2000/svg">
<circle cx="40" cy="40" r="40" fill="#508DE8" fill-opacity="0.3"/>
<path d="M81.3552 69.8987H79.5533C78.3031 66.9283 78.3026 64.03 79.5519 61.0746H81.3552C83.365 61.0746 85 59.4395 85 57.4296C85 55.4199 83.365 53.7847 81.3552 53.7847H74.1039C75.0269 52.7303 75.588 51.3518 75.588 49.8437V38.4235C75.588 35.1196 72.9003 32.4317 69.5964 32.4317H66.6478C66.898 31.9329 67.0397 31.3706 67.0397 30.7756C67.0397 28.7294 65.3769 27.0645 63.3329 27.0645H62.3186C61.4134 24.8269 61.4129 22.6413 62.3171 20.4179H63.3329C65.3769 20.4179 67.0397 18.7531 67.0397 16.7069C67.0397 14.6629 65.3769 13 63.3329 13H28.7427C22.8189 13 17.9996 17.8176 17.9996 23.7391C17.9996 26.6028 19.1188 29.2991 21.1507 31.3311C21.5547 31.7351 21.9859 32.1014 22.4385 32.4316H21.6444C19.6346 32.4316 17.9996 34.0666 17.9996 36.0765C17.9996 38.0864 19.6346 39.7214 21.6444 39.7214H23.4477C24.6971 42.6766 24.6966 45.575 23.4463 48.5454H21.6444C19.6346 48.5454 17.9996 50.1804 17.9996 52.1903C17.9996 52.9592 18.2396 53.6727 18.6475 54.2613C16.5054 55.1753 15 57.3032 15 59.7765V71.1968C15 74.5007 17.686 77.1885 20.9875 77.1885H81.3551C83.3648 77.1885 84.9999 75.5535 84.9999 73.5436C85 71.5338 83.365 69.8987 81.3552 69.8987ZM81.3552 55.8355C82.2342 55.8355 82.9492 56.5507 82.9492 57.4296C82.9492 58.3086 82.2342 59.0238 81.3552 59.0238H62.8494C62.283 59.0238 61.824 59.4829 61.824 60.0492C61.824 60.6155 62.283 61.0746 62.8494 61.0746H77.3522C76.9515 62.2 76.7065 63.3299 76.6139 64.4612C76.6139 64.4612 76.2043 66.4908 77.3544 69.8987H22.5865C22.4257 69.8987 22.2898 69.7628 22.2898 69.6018V61.3714C22.2898 61.2106 22.4257 61.0747 22.5865 61.0747H32.7449L32.7455 64.4423C32.6809 65.4505 33.1732 65.8478 33.4755 65.9955C33.7819 66.1453 34.4113 66.2904 35.1858 65.5824C35.1912 65.5775 35.1965 65.5726 35.2017 65.5677L38.0679 62.834L40.934 65.5677C40.9392 65.5727 40.9446 65.5777 40.9499 65.5824C41.4033 65.9968 41.8069 66.1192 42.1255 66.1192C42.3532 66.1192 42.5375 66.0567 42.6654 65.9937C42.9681 65.8447 43.4598 65.4455 43.3902 64.4396L43.3916 61.0747H57.8006C58.3671 61.0747 58.826 60.6156 58.826 60.0493C58.826 59.483 58.3671 59.0239 57.8006 59.0239H43.3922L43.3936 55.8356H81.3552V55.8355ZM26.3862 43.1083C26.2938 41.977 26.044 40.8473 25.6436 39.7217H68.0018C68.1627 39.7217 68.2986 39.8576 68.2986 40.0184V48.2488C68.2986 48.4096 68.1627 48.5455 68.0018 48.5455H43.3966L43.398 45.1588H50.5742C51.1406 45.1588 51.5996 44.6997 51.5996 44.1335C51.5996 43.5672 51.1406 43.1081 50.5742 43.1081H26.3862V43.1083ZM32.7423 48.5456H25.6412C26.0414 47.4185 26.2916 46.2888 26.3851 45.159H32.7416L32.7423 48.5456ZM41.3472 45.1591L41.3398 63.1207L38.7754 60.6748C38.3793 60.2969 37.7562 60.2969 37.3599 60.6748L34.7959 63.1204L34.7922 45.159H41.3472V45.1591ZM20.0504 23.7393C20.0504 18.9485 23.9497 15.0509 28.7427 15.0509H63.3329C64.2461 15.0509 64.9889 15.7938 64.9889 16.707C64.9889 17.6225 64.246 18.3673 63.3329 18.3673H44.4305C43.8642 18.3673 43.4051 18.8264 43.4051 19.3927C43.4051 19.959 43.8642 20.4181 44.4305 20.4181H60.1322C59.4084 22.6239 59.4094 24.8493 60.135 27.0647H28.7427C27.8609 27.0647 27.0259 26.7173 26.3956 26.0901C25.7648 25.456 25.4174 24.6212 25.4174 23.7393C25.4174 21.9079 26.9092 20.4181 28.7427 20.4181H39.3817C39.948 20.4181 40.4071 19.959 40.4071 19.3927C40.4071 18.8264 39.948 18.3673 39.3817 18.3673H28.7427C25.7784 18.3673 23.3666 20.7771 23.3666 23.7393C23.3666 25.167 23.9261 26.5156 24.9455 27.5402C25.9665 28.556 27.3149 29.1154 28.7427 29.1154H63.3329C64.2461 29.1154 64.9889 29.8603 64.9889 30.7758C64.9889 31.6889 64.246 32.4318 63.3329 32.4318H28.7427C26.4268 32.4318 24.2456 31.5261 22.6009 29.8812C20.9562 28.2365 20.0504 26.0553 20.0504 23.7393ZM21.6444 37.6709C20.7654 37.6709 20.0504 36.9559 20.0504 36.0768C20.0504 35.1978 20.7654 34.4826 21.6444 34.4826H69.5964C71.7695 34.4826 73.5372 36.2505 73.5372 38.4237V49.8438C73.5372 52.0169 71.7693 53.7848 69.5964 53.7848H43.3944L43.3958 50.5966H68.0016C69.2961 50.5966 70.3492 49.5434 70.3492 48.2491V40.0186C70.3492 38.7242 69.2961 37.6712 68.0016 37.6712H21.6444V37.6709ZM21.6444 50.5964H32.7427L32.7434 53.7847H21.6445C20.7656 53.7847 20.0505 53.0695 20.0505 52.1906C20.0504 51.3116 20.7654 50.5964 21.6444 50.5964ZM81.3552 75.1377H20.9875C18.8168 75.1377 17.0508 73.3698 17.0508 71.1968V59.7765C17.0508 57.6034 18.8168 55.8355 20.9875 55.8355H32.7436L32.7443 59.0238H22.5865C21.2921 59.0238 20.2391 60.0769 20.2391 61.3712V69.6017C20.2391 70.8962 21.2922 71.9493 22.5865 71.9493H81.3552C82.2342 71.9493 82.9492 72.6645 82.9492 73.5434C82.9492 74.4224 82.2342 75.1377 81.3552 75.1377Z" fill="#3771C6"/>
</svg>
