<svg width="29" height="29" viewBox="0 0 29 29" fill="none" xmlns="http://www.w3.org/2000/svg">
<path d="M27.858 6.40492C28.0505 6.21488 28.1353 5.94312 28.0845 5.67905C28.0337 5.41497 27.854 5.19277 27.6044 5.08559L24.8311 3.8945L23.8579 1.11935C23.7651 0.854895 23.541 0.656191 23.2649 0.593476C22.9887 0.53087 22.6992 0.612864 22.4988 0.810757L20.93 2.35988C18.8192 1.2067 16.4 0.576525 14.0476 0.576525C10.2995 0.576525 6.77575 2.01782 4.12538 4.63499C1.47502 7.25217 0.0155029 10.7317 0.0155029 14.4329C0.0155029 18.134 1.47508 21.6137 4.12544 24.2308C6.77575 26.8479 10.2996 28.2893 14.0477 28.2893C17.7958 28.2893 21.3196 26.848 23.9699 24.2308C26.6202 21.6137 28.0799 18.1341 28.0799 14.4329C28.0799 12.1272 27.4991 9.86463 26.3956 7.84909L27.858 6.40492ZM22.0957 9.79736L20.3956 9.34682L24.3557 5.46204L25.8403 6.09969L22.0957 9.79736ZM21.7859 14.4329C21.7859 18.6464 18.3145 22.0743 14.0476 22.0743C9.78073 22.0743 6.30935 18.6464 6.30935 14.4329C6.30935 10.2194 9.78073 6.7915 14.0476 6.7915C15.3325 6.7915 16.4275 7.04182 17.4759 7.57635L17.9001 9.50459L16.8569 10.5279C16.0636 9.9698 15.0937 9.64123 14.0476 9.64123C11.3719 9.64123 9.1951 11.7907 9.1951 14.4329C9.1951 17.0751 11.3719 19.2246 14.0476 19.2246C16.7233 19.2246 18.9001 17.0751 18.9001 14.4329C18.9001 13.4092 18.5731 12.4595 18.0171 11.68L19.0454 10.6713L21.0687 11.2074C21.5571 12.1951 21.7859 13.2252 21.7859 14.4329ZM17.2548 14.4329C17.2548 16.1791 15.816 17.5999 14.0476 17.5999C12.2792 17.5999 10.8405 16.1791 10.8405 14.4329C10.8405 12.6866 12.2792 11.2659 14.0476 11.2659C14.6366 11.2659 15.1885 11.4242 15.6633 11.6988L13.4391 13.8807C13.1168 14.1969 13.1151 14.7113 13.4353 15.0295C13.5961 15.1894 13.8075 15.2693 14.0189 15.2693C14.2286 15.2693 14.4383 15.1907 14.5987 15.0333L16.8239 12.8504C17.0974 13.3165 17.2548 13.8567 17.2548 14.4329ZM22.7331 2.87704L23.2253 4.28059L19.285 8.14604L18.948 6.61473L22.7331 2.87704ZM26.4344 14.4329C26.4344 17.7001 25.146 20.7717 22.8064 23.082C20.4669 25.3922 17.3562 26.6645 14.0476 26.6645C10.739 26.6645 7.62841 25.3922 5.28886 23.082C2.9493 20.7717 1.66084 17.7001 1.66084 14.4329C1.66084 11.1657 2.9493 8.09405 5.28886 5.78384C7.62841 3.47358 10.739 2.20126 14.0476 2.20126C15.9709 2.20126 17.9472 2.67974 19.7131 3.56148L17.467 5.77946C17.4648 5.78162 17.4629 5.7839 17.4607 5.78606C16.4052 5.37062 15.2797 5.16677 14.0476 5.16677C8.87344 5.16677 4.66396 9.32354 4.66396 14.4329C4.66396 19.5422 8.87344 23.699 14.0476 23.699C19.2217 23.699 23.4312 19.5422 23.4312 14.4329C23.4312 13.2889 23.2591 12.2713 22.8971 11.3012C22.9057 11.2934 22.9148 11.2862 22.9231 11.2779L25.1744 9.05486C26.0012 10.7217 26.4344 12.5611 26.4344 14.4329Z" fill="white"/>
</svg>
