<svg width="89" height="80" viewBox="0 0 89 80" fill="none" xmlns="http://www.w3.org/2000/svg">
<circle cx="40" cy="40" r="40" fill="#508DE8" fill-opacity="0.3"/>
<g clip-path="url(#clip0)">
<path d="M87.8339 9C87.8338 9 87.8335 9 87.8333 9H20.1667C19.5225 8.99985 19.0001 9.52194 19 10.1661C19 10.1662 19 10.1665 19 10.1667V33.5H21.3333V11.3333H86.6667V37H45.8333V39.3333H87.8333C88.4775 39.3335 88.9999 38.8114 89 38.1673C89 38.1671 89 38.1668 89 38.1667V10.1667C89.0001 9.52252 88.4781 9.00015 87.8339 9Z" fill="#2D65B8"/>
<path d="M80.8333 14.8333H57.5V17.1667H80.8333V14.8333Z" fill="#2D65B8"/>
<path d="M84.3333 21.8333H61V24.1667H84.3333V21.8333Z" fill="#2D65B8"/>
<path d="M79.6666 28.8333H56.3333V31.1667H79.6666V28.8333Z" fill="#2D65B8"/>
<path d="M56.2403 19.0587C55.4416 17.1388 53.2377 16.23 51.318 17.0287C51.2852 17.0424 51.2525 17.0564 51.2201 17.071L41.7602 21.9783C42.1333 21.2051 42.3291 20.3584 42.3333 19.5C42.3333 16.2784 39.7216 13.6667 36.5 13.6667C33.2784 13.6667 30.6667 16.2784 30.6667 19.5C30.671 20.7663 31.0915 21.9961 31.8632 23H31.8147C28.5031 23.0222 25.5469 25.0809 24.3778 28.1794L21.2633 38.9141C20.5219 40.8399 21.4821 43.0024 23.4081 43.7438C24.2863 44.0818 25.2598 44.0761 26.134 43.7277C27.1385 43.323 27.9202 42.5058 28.28 41.4844L29.5 37.6016V54.4866C28.4961 53.715 27.2663 53.2945 26 53.29C22.7832 53.2852 20.1715 55.8891 20.1667 59.106C20.1643 60.6814 20.8002 62.1905 21.9294 63.2892C20.1374 64.2048 19.007 66.0446 19 68.0568V77.8333C18.9999 78.4775 19.5219 78.9999 20.1661 79C20.1662 79 20.1665 79 20.1667 79H31.8333C32.4775 79.0002 32.9999 78.4781 33 77.8339C33 77.8338 33 77.8335 33 77.8333V68.0568C32.9943 66.4032 32.2261 64.8448 30.9181 63.8333H39.7487C38.4406 64.8448 37.6724 66.4032 37.6668 68.0568V77.8333C37.6667 78.4775 38.1888 78.9999 38.8329 79C38.833 79 38.8333 79 38.8335 79H50.5001C51.1443 79.0002 51.6667 78.4781 51.6668 77.8339C51.6668 77.8338 51.6668 77.8335 51.6668 77.8333V68.0568C51.6598 66.0446 50.5295 64.2048 48.7375 63.2892C51.0409 61.0409 51.0857 57.3509 48.8374 55.0475C47.4528 53.6289 45.4422 53.0113 43.5001 53.408V29.5419L54.2103 23.9809C56.13 23.1823 57.0389 20.9785 56.2403 19.0587ZM36.5 16C38.433 16 40 17.567 40 19.5C40 21.433 38.433 23 36.5 23C34.5679 22.998 33.002 21.4322 33 19.5C33 17.567 34.567 16 36.5 16ZM26 55.6234C27.933 55.6234 29.5 57.1903 29.5 59.1234C29.5 61.0564 27.933 62.6234 26 62.6234C24.067 62.6234 22.5 61.0564 22.5 59.1234C22.502 57.1912 24.0679 55.6255 26 55.6234ZM30.6667 76.6667H21.3333V68.0568C21.3357 66.3694 22.7031 65.002 24.3907 65H27.6093C29.2967 65.002 30.6643 66.3694 30.6667 68.0568V76.6667ZM49.3333 68.0568V76.6667H40V68.0568C40.0023 66.3694 41.3698 65.002 43.0574 65H46.2759C47.9635 65.002 49.331 66.3694 49.3333 68.0568ZM44.6667 55.6234C46.5988 55.6254 48.1646 57.1912 48.1667 59.1234C48.1667 61.0564 46.5997 62.6234 44.6667 62.6234C42.7336 62.6234 41.1667 61.0564 41.1667 59.1234C41.1667 57.1903 42.7336 55.6234 44.6667 55.6234ZM54.1054 21.005C53.9493 21.4058 53.6286 21.7203 53.2248 21.8686L41.7962 27.7976C41.4095 27.9983 41.1667 28.3977 41.1667 28.8333V54.4866C38.9814 56.1024 38.2243 59.0268 39.3513 61.5H37.6667V41.6667H35.3333V61.5H31.3153C31.6473 60.7665 31.8221 59.9717 31.829 59.1667H31.8333V30C31.8332 29.3556 31.3107 28.8333 30.6664 28.8335C30.157 28.8336 29.7065 29.1642 29.5537 29.6503L26.07 40.7358C25.806 41.4638 25.0018 41.8401 24.2738 41.576C24.2227 41.5574 24.1727 41.536 24.124 41.5117C23.451 41.1638 23.1653 40.3518 23.4724 39.6591L26.5867 28.9245C27.4265 26.7676 29.4999 25.3434 31.8145 25.3333H40.0753C40.2622 25.3336 40.4465 25.2886 40.6125 25.2024L52.208 19.1834C52.9036 18.8932 53.7054 19.1901 54.044 19.8636C54.2236 20.2185 54.2459 20.6327 54.1054 21.005Z" fill="#2D65B8"/>
<path d="M67.404 63.2892C69.7115 61.0411 69.7596 57.3478 67.5114 55.0403C65.2633 52.7328 61.57 52.6847 59.2625 54.9328C56.955 57.181 56.9069 60.8742 59.155 63.1818C59.1905 63.2181 59.2264 63.2539 59.2627 63.2892C57.4708 64.2048 56.3403 66.0446 56.3333 68.0568V77.8333C56.3332 78.4775 56.8553 78.9999 57.4994 79C57.4995 79 57.4998 79 57.5 79H69.1666C69.8108 79.0002 70.3332 78.4781 70.3333 77.8339C70.3333 77.8338 70.3333 77.8335 70.3333 77.8333V68.0568C70.3263 66.0446 69.196 64.2048 67.404 63.2892ZM63.3333 55.6234C65.2663 55.6234 66.8333 57.1903 66.8333 59.1234C66.8333 61.0564 65.2663 62.6234 63.3333 62.6234C61.4003 62.6234 59.8333 61.0564 59.8333 59.1234C59.8354 57.1912 61.4012 55.6255 63.3333 55.6234ZM68 76.6667H58.6666V68.0568C58.669 66.3694 60.0365 65.002 61.724 65H64.9426C66.63 65.002 67.9976 66.3694 68 68.0568V76.6667Z" fill="#2D65B8"/>
<path d="M86.0706 63.2892C88.3782 61.0411 88.4263 57.3478 86.1781 55.0403C83.93 52.7328 80.2367 52.6847 77.9292 54.9328C75.6217 57.181 75.5736 60.8742 77.8217 63.1818C77.8572 63.2181 77.893 63.2539 77.9294 63.2892C76.1375 64.2048 75.007 66.0446 75 68.0568V77.8333C74.9999 78.4775 75.5219 78.9999 76.1661 79C76.1662 79 76.1665 79 76.1667 79H87.8333C88.4775 79.0002 88.9999 78.4781 89 77.8339C89 77.8338 89 77.8335 89 77.8333V68.0568C88.993 66.0446 87.8626 64.2048 86.0706 63.2892ZM82 55.6234C83.933 55.6234 85.5 57.1903 85.5 59.1234C85.5 61.0564 83.933 62.6234 82 62.6234C80.067 62.6234 78.5 61.0564 78.5 59.1234C78.502 57.1912 80.0679 55.6255 82 55.6234ZM86.6667 76.6667H77.3333V68.0568C77.3357 66.3694 78.7031 65.002 80.3907 65H83.6093C85.2967 65.002 86.6643 66.3694 86.6667 68.0568V76.6667Z" fill="#2D65B8"/>
</g>
<defs>
<clipPath id="clip0">
<rect width="70" height="70" fill="white" transform="translate(19 9)"/>
</clipPath>
</defs>
</svg>
